Coordinates
version=1
nRows=49
nColumns=12
inDegrees=yes

Units are S.I. units (second, meters, Newtons, ...)
Angles are in degrees

endheader
time	SC_y	SC_z	SC_x	AC_y	AC_z	AC_x	GH_y	GH_z	GH_yy	EL_x	PS_y
       0.0              -29.98          24.46          40.63          68.81         -8.599         -15.19          36.38          13.24         -111.9          63.21          139.9
   0.02275              -29.98          24.46          40.63           68.8         -8.597         -15.19          36.39          13.25         -111.9          63.21          139.9
    0.0455              -29.97          24.46          40.63           68.8         -8.595         -15.19          36.39          13.26         -111.9          63.21          139.9
   0.06825              -29.97          24.46          40.63          68.79         -8.593         -15.19           36.4          13.27         -111.9          63.21          139.9
     0.091              -29.97          24.46          40.64          68.79         -8.591         -15.19           36.4          13.28         -111.9          63.21          139.8
    0.1137              -29.97          24.46          40.64          68.78         -8.589         -15.19          36.41          13.29         -111.9          63.21          139.8
    0.1365              -29.96          24.46          40.64          68.77         -8.586         -15.19          36.42           13.3         -111.9          63.21          139.8
    0.1592              -29.96          24.46          40.64          68.77         -8.584         -15.19          36.43          13.32         -111.9          63.21          139.8
     0.182              -29.95          24.46          40.65          68.76         -8.581         -15.19          36.44          13.33         -111.9          63.22          139.7
    0.2047              -29.95          24.46          40.65          68.75         -8.578         -15.19          36.45          13.34         -112.0          63.22          139.7
    0.2275              -29.95          24.47          40.65          68.74         -8.575         -15.19          36.46          13.36         -112.0          63.22          139.7
    0.2502              -29.94          24.47          40.66          68.73         -8.572         -15.19          36.47          13.38         -112.0          63.22          139.6
     0.273              -29.94          24.47          40.66          68.72         -8.568         -15.19          36.48          13.39         -112.0          63.22          139.6
    0.2957              -29.93          24.47          40.66          68.71         -8.564         -15.19          36.49          13.41         -112.0          63.22          139.5
    0.3185              -29.92          24.47          40.67           68.7          -8.56         -15.19           36.5          13.43         -112.0          63.23          139.5
    0.3412              -29.92          24.47          40.67          68.68         -8.555         -15.19          36.52          13.46         -112.0          63.23          139.4
     0.364              -29.91          24.47          40.68          68.67          -8.55         -15.19          36.53          13.48         -112.0          63.23          139.4
    0.3867               -29.9          24.47          40.69          68.65         -8.544         -15.19          36.55          13.51         -112.0          63.23          139.3
    0.4095              -29.89          24.48          40.69          68.63         -8.538         -15.19          36.57          13.54         -112.1          63.24          139.3
    0.4322              -29.88          24.48           40.7          68.61         -8.532         -15.19          36.59          13.57         -112.1          63.24          139.2
     0.455              -29.87          24.48          40.71          68.59         -8.524         -15.18          36.62           13.6         -112.1          63.24          139.1
    0.4777              -29.86          24.48          40.72          68.57         -8.516         -15.18          36.64          13.64         -112.1          63.25          139.0
    0.5005              -29.85          24.48          40.73          68.54         -8.507         -15.18          36.67          13.69         -112.1          63.25          138.9
    0.5232              -29.83          24.49          40.74          68.52         -8.498         -15.18           36.7          13.73         -112.2          63.26          138.8
     0.546              -29.82          24.49          40.75          68.48         -8.487         -15.18          36.73          13.79         -112.2          63.26          138.7
    0.5687               -29.8          24.49          40.76          68.45         -8.475         -15.18          36.77          13.85         -112.2          63.27          138.6
    0.5915              -29.78           24.5          40.78          68.41         -8.461         -15.18          36.81          13.91         -112.2          63.27          138.4
    0.6142              -29.76           24.5          40.79          68.37         -8.446         -15.17          36.86          13.99         -112.3          63.28          138.2
     0.637              -29.73          24.51          40.81          68.32         -8.428         -15.17          36.92          14.07         -112.3          63.29          138.1
    0.6597               -29.7          24.51          40.83          68.26         -8.409         -15.17          36.98          14.17         -112.4           63.3          137.8
    0.6825              -29.67          24.52          40.86          68.19         -8.386         -15.17          37.05          14.28         -112.4          63.31          137.6
    0.7052              -29.63          24.52          40.88          68.12          -8.36         -15.16          37.13           14.4         -112.5          63.32          137.3
     0.728              -29.59          24.53          40.92          68.03         -8.331         -15.16          37.22          14.55         -112.6          63.34          137.0
    0.7507              -29.54          24.54          40.95          67.93         -8.296         -15.15          37.33          14.71         -112.7          63.35          136.6
    0.7735              -29.48          24.55           41.0          67.82         -8.256         -15.15          37.46          14.91         -112.8          63.37          136.2
    0.7962              -29.41          24.57          41.05          67.68         -8.208         -15.14          37.61          15.14         -112.9           63.4          135.7
     0.819              -29.33          24.58          41.11          67.52         -8.151         -15.14          37.79          15.42         -113.0          63.42          135.0
    0.8417              -29.23           24.6          41.18          67.32         -8.084         -15.13           38.0          15.75         -113.2          63.46          134.3
    0.8645              -29.11          24.62          41.27          67.08         -8.001         -15.12          38.26          16.15         -113.4           63.5          133.4
    0.8872              -28.97          24.65          41.38          66.79         -7.901          -15.1          38.57          16.64         -113.6          63.54          132.3
      0.91              -28.79          24.68          41.51          66.43         -7.777         -15.09          38.96          17.24         -113.9           63.6          130.9
    0.9327              -28.56          24.72          41.68          65.99         -7.623         -15.07          39.45          17.99         -114.3          63.68          129.3
    0.9555              -28.28          24.78          41.89          65.42         -7.428         -15.04          40.06          18.93         -114.8          63.77          127.1
    0.9782              -27.92          24.84          42.15          64.71         -7.181         -15.01          40.84          20.14         -115.4          63.89          124.4
     1.001              -27.46          24.93          42.49          63.79         -6.865         -14.97          41.83          21.68         -116.2          64.04          121.0
     1.024              -26.87          25.04          42.93          62.62         -6.459         -14.91          43.11          23.65         -117.2          64.24          116.6
     1.046              -26.12          25.18          43.49          61.12          -5.94         -14.84          44.74          26.17         -118.5          64.49          110.9
     1.069              -25.17          25.36          44.19          59.23         -5.287         -14.76          46.79          29.35         -120.1          64.81          103.8
     1.092              -24.02          25.58          45.04          56.93         -4.493         -14.65          49.28          33.21         -122.1          65.19           95.1
